<svg width="13" height="14" viewBox="0 0 13 14" fill="none" xmlns="http://www.w3.org/2000/svg">
<path fill-rule="evenodd" clip-rule="evenodd" d="M4.8731 1.89127C5.71702 1.04735 6.86162 0.573242 8.0551 0.573242C9.24858 0.573242 10.3932 1.04735 11.2371 1.89127C12.081 2.73519 12.5551 3.87979 12.5551 5.07327C12.5551 6.26675 12.081 7.41135 11.2371 8.25527L6.5521 12.9403C6.25026 13.242 5.89193 13.4814 5.49758 13.6447C5.10323 13.808 4.68057 13.892 4.25375 13.892C3.82692 13.8919 3.40429 13.8078 3.00997 13.6444C2.61565 13.4811 2.25738 13.2416 1.9556 12.9398C1.65382 12.6379 1.41445 12.2796 1.25116 11.8852C1.08786 11.4909 1.00384 11.0682 1.00388 10.6414C1.00393 10.2146 1.08805 9.79196 1.25143 9.39764C1.41481 9.00332 1.65426 8.64505 1.9561 8.34327L6.6401 3.65927C7.01512 3.28412 7.5238 3.07331 8.05425 3.07322C8.58469 3.07312 9.09345 3.28375 9.4686 3.65877C9.84375 4.03379 10.0546 4.54247 10.0547 5.07292C10.0547 5.60336 9.84412 6.11212 9.4691 6.48727L4.8731 11.0833C4.82698 11.131 4.7718 11.1691 4.7108 11.1953C4.6498 11.2215 4.58419 11.2353 4.5178 11.2359C4.45141 11.2365 4.38557 11.2238 4.32412 11.1987C4.26267 11.1735 4.20685 11.1364 4.1599 11.0895C4.11296 11.0425 4.07583 10.9867 4.05069 10.9252C4.02555 10.8638 4.0129 10.798 4.01347 10.7316C4.01405 10.6652 4.02784 10.5996 4.05405 10.5386C4.08025 10.4776 4.11835 10.4224 4.1661 10.3763L8.7621 5.78027C8.85495 5.68736 8.92858 5.57707 8.9788 5.4557C9.02902 5.33434 9.05485 5.20427 9.0548 5.07292C9.05476 4.94157 9.02884 4.81151 8.97853 4.69018C8.92822 4.56885 8.85451 4.45861 8.7616 4.36577C8.66869 4.27293 8.5584 4.19929 8.43703 4.14907C8.31567 4.09885 8.1856 4.07302 8.05425 4.07307C7.9229 4.07311 7.79284 4.09903 7.67151 4.14934C7.55018 4.19965 7.43994 4.27336 7.3471 4.36627L2.6631 9.05027C2.24114 9.47223 2.00409 10.0445 2.00409 10.6413C2.00409 11.238 2.24114 11.8103 2.6631 12.2323C3.08506 12.6542 3.65736 12.8913 4.2541 12.8913C4.85084 12.8913 5.42314 12.6542 5.8451 12.2323L10.5301 7.54927C11.1865 6.89286 11.5553 6.00257 11.5553 5.07427C11.5553 4.14596 11.1865 3.25568 10.5301 2.59927C9.87369 1.94286 8.98341 1.57409 8.0551 1.57409C7.1268 1.57409 6.23651 1.94286 5.5801 2.59927L0.9841 7.19427C0.890346 7.28816 0.763135 7.34095 0.630453 7.34105C0.497772 7.34114 0.370487 7.28852 0.2766 7.19477C0.182713 7.10102 0.129916 6.97381 0.129822 6.84112C0.129728 6.70844 0.182346 6.58116 0.2761 6.48727L4.8731 1.89127Z" fill="#3E3E40"/>
</svg>
