<svg width="20" height="20" viewBox="0 0 20 20" fill="none" xmlns="http://www.w3.org/2000/svg">
<path fill-rule="evenodd" clip-rule="evenodd" d="M1.5 5.8C1.5 4.12 1.5 3.28 1.827 2.638C2.11462 2.07354 2.57354 1.61462 3.138 1.327C3.78 1 4.62 1 6.3 1H13.7C15.38 1 16.22 1 16.862 1.327C17.4265 1.61462 17.8854 2.07354 18.173 2.638C18.5 3.28 18.5 4.12 18.5 5.8V14.2C18.5 15.88 18.5 16.72 18.173 17.362C17.8854 17.9265 17.4265 18.3854 16.862 18.673C16.22 19 15.38 19 13.7 19H6.3C4.62 19 3.78 19 3.138 18.673C2.57354 18.3854 2.11462 17.9265 1.827 17.362C1.5 16.72 1.5 15.88 1.5 14.2V5.8ZM6.907 12.666H7.729C8.378 12.666 8.772 12.981 8.772 13.496C8.772 13.997 8.355 14.34 7.752 14.34C7.107 14.34 6.694 14.025 6.671 13.515H5.047C5.107 14.827 6.161 15.681 7.724 15.681C9.361 15.681 10.502 14.837 10.502 13.626C10.502 12.763 9.913 12.156 8.99 12.058V11.97C9.34826 11.9116 9.6735 11.7262 9.90618 11.4476C10.1389 11.169 10.2634 10.8159 10.257 10.453C10.257 9.373 9.237 8.625 7.752 8.625C6.198 8.625 5.196 9.46 5.172 10.769H6.717C6.736 10.244 7.13 9.896 7.715 9.896C8.308 9.896 8.675 10.198 8.675 10.686C8.675 11.172 8.299 11.492 7.729 11.492H6.907V12.666ZM12.927 15.5H14.629V8.806H12.927L11.224 9.966V11.432L12.838 10.342H12.927V15.5ZM4.75 4C4.55109 4 4.36032 4.07902 4.21967 4.21967C4.07902 4.36032 4 4.55109 4 4.75C4 4.94891 4.07902 5.13968 4.21967 5.28033C4.36032 5.42098 4.55109 5.5 4.75 5.5H15.25C15.4489 5.5 15.6397 5.42098 15.7803 5.28033C15.921 5.13968 16 4.94891 16 4.75C16 4.55109 15.921 4.36032 15.7803 4.21967C15.6397 4.07902 15.4489 4 15.25 4H4.75Z" fill="#E9483A"/>
</svg>
