<svg width="21" height="20" viewBox="0 0 21 20" fill="none" xmlns="http://www.w3.org/2000/svg">
<path fill-rule="evenodd" clip-rule="evenodd" d="M17.97 2.46983C18.1104 2.61045 18.1893 2.80108 18.1893 2.99983C18.1893 3.19858 18.1104 3.3892 17.97 3.52983L10.97 10.5298C10.9013 10.6035 10.8185 10.6626 10.7265 10.7036C10.6345 10.7446 10.5352 10.7666 10.4345 10.7684C10.3338 10.7702 10.2338 10.7517 10.1404 10.714C10.047 10.6762 9.96215 10.6201 9.89094 10.5489C9.81972 10.4776 9.76357 10.3928 9.72585 10.2994C9.68813 10.206 9.6696 10.106 9.67138 10.0053C9.67316 9.9046 9.6952 9.80529 9.73619 9.71329C9.77718 9.62129 9.83629 9.53849 9.90997 9.46983L16.91 2.46983C17.0506 2.32938 17.2412 2.25049 17.44 2.25049C17.6387 2.25049 17.8293 2.32938 17.97 2.46983Z" fill="#3E3E40"/>
<path fill-rule="evenodd" clip-rule="evenodd" d="M11.94 3C11.94 2.80109 12.019 2.61032 12.1597 2.46967C12.3003 2.32902 12.4911 2.25 12.69 2.25H17.44C17.6389 2.25 17.8297 2.32902 17.9703 2.46967C18.111 2.61032 18.19 2.80109 18.19 3C18.19 3.19891 18.111 3.38968 17.9703 3.53033C17.8297 3.67098 17.6389 3.75 17.44 3.75H12.69C12.4911 3.75 12.3003 3.67098 12.1597 3.53033C12.019 3.38968 11.94 3.19891 11.94 3Z" fill="#3E3E40"/>
<path fill-rule="evenodd" clip-rule="evenodd" d="M17.44 2.25C17.6389 2.25 17.8297 2.32902 17.9703 2.46967C18.111 2.61032 18.19 2.80109 18.19 3V7.75C18.19 7.94891 18.111 8.13968 17.9703 8.28033C17.8297 8.42098 17.6389 8.5 17.44 8.5C17.2411 8.5 17.0503 8.42098 16.9097 8.28033C16.769 8.13968 16.69 7.94891 16.69 7.75V3C16.69 2.80109 16.769 2.61032 16.9097 2.46967C17.0503 2.32902 17.2411 2.25 17.44 2.25ZM5.44 3.75C4.75 3.75 4.19 4.31 4.19 5V15C4.19 15.69 4.75 16.25 5.44 16.25H15.44C16.13 16.25 16.69 15.69 16.69 15V12.5C16.69 12.3011 16.769 12.1103 16.9097 11.9697C17.0503 11.829 17.2411 11.75 17.44 11.75C17.6389 11.75 17.8297 11.829 17.9703 11.9697C18.111 12.1103 18.19 12.3011 18.19 12.5V15C18.19 15.7293 17.9003 16.4288 17.3845 16.9445C16.8688 17.4603 16.1693 17.75 15.44 17.75H5.44C4.71066 17.75 4.01118 17.4603 3.49546 16.9445C2.97973 16.4288 2.69 15.7293 2.69 15V5C2.69 4.27065 2.97973 3.57118 3.49546 3.05546C4.01118 2.53973 4.71066 2.25 5.44 2.25H7.94C8.13891 2.25 8.32968 2.32902 8.47033 2.46967C8.61098 2.61032 8.69 2.80109 8.69 3C8.69 3.19891 8.61098 3.38968 8.47033 3.53033C8.32968 3.67098 8.13891 3.75 7.94 3.75H5.44Z" fill="#3E3E40"/>
</svg>
