<svg width="18" height="19" viewBox="0 0 18 19" fill="none" xmlns="http://www.w3.org/2000/svg">
<path fill-rule="evenodd" clip-rule="evenodd" d="M0.5 5.23994C0.5 3.55994 0.5 2.71994 0.827 2.07794C1.11462 1.51348 1.57354 1.05456 2.138 0.766941C2.78 0.439941 3.62 0.439941 5.3 0.439941H12.7C14.38 0.439941 15.22 0.439941 15.862 0.766941C16.4265 1.05456 16.8854 1.51348 17.173 2.07794C17.5 2.71994 17.5 3.55994 17.5 5.23994V13.6399C17.5 15.3199 17.5 16.1599 17.173 16.8019C16.8854 17.3664 16.4265 17.8253 15.862 18.1129C15.22 18.4399 14.38 18.4399 12.7 18.4399H5.3C3.62 18.4399 2.78 18.4399 2.138 18.1129C1.57354 17.8253 1.11462 17.3664 0.827 16.8019C0.5 16.1599 0.5 15.3199 0.5 13.6399V5.23994ZM11.3 6.21294C11.3 7.57594 10.518 8.93994 9.05 8.93994C7.7 8.93994 6.8 7.57594 6.8 6.21294C6.8 4.84894 7.807 3.93994 9.05 3.93994C10.293 3.93994 11.3 4.84994 11.3 6.21294ZM9 14.9399C11.627 14.9399 13 13.9239 13 13.9239C13 11.9999 11.21 10.4399 9 10.4399C6.79 10.4399 5 11.9999 5 13.9239C5 13.9239 6.373 14.9399 9 14.9399Z" fill="#15ACC0"/>
</svg>
