<svg width="17" height="17" viewBox="0 0 17 17" fill="none" xmlns="http://www.w3.org/2000/svg">
<path fill-rule="evenodd" clip-rule="evenodd" d="M8.33008 2.32324C7.54215 2.32324 6.76193 2.47844 6.03398 2.77996C5.30602 3.08149 4.64459 3.52345 4.08744 4.0806C3.53029 4.63775 3.08833 5.29919 2.7868 6.02714C2.48527 6.7551 2.33008 7.53531 2.33008 8.32324C2.33008 9.11117 2.48527 9.89139 2.7868 10.6193C3.08833 11.3473 3.53029 12.0087 4.08744 12.5659C4.64459 13.123 5.30602 13.565 6.03398 13.8665C6.76193 14.168 7.54215 14.3232 8.33008 14.3232C9.92138 14.3232 11.4475 13.6911 12.5727 12.5659C13.6979 11.4407 14.3301 9.91454 14.3301 8.32324C14.3301 6.73194 13.6979 5.20582 12.5727 4.0806C11.4475 2.95538 9.92138 2.32324 8.33008 2.32324ZM1.33008 8.32324C1.33008 6.46673 2.06758 4.68625 3.38033 3.37349C4.69309 2.06074 6.47356 1.32324 8.33008 1.32324C10.1866 1.32324 11.9671 2.06074 13.2798 3.37349C14.5926 4.68625 15.3301 6.46673 15.3301 8.32324C15.3301 10.1798 14.5926 11.9602 13.2798 13.273C11.9671 14.5857 10.1866 15.3232 8.33008 15.3232C6.47356 15.3232 4.69309 14.5857 3.38033 13.273C2.06758 11.9602 1.33008 10.1798 1.33008 8.32324Z" fill="#3E3E40"/>
<path d="M10.3301 7.82324C10.8824 7.82324 11.3301 7.37553 11.3301 6.82324C11.3301 6.27096 10.8824 5.82324 10.3301 5.82324C9.77779 5.82324 9.33008 6.27096 9.33008 6.82324C9.33008 7.37553 9.77779 7.82324 10.3301 7.82324Z" fill="#3E3E40"/>
<path d="M6.33008 7.82324C6.88236 7.82324 7.33008 7.37553 7.33008 6.82324C7.33008 6.27096 6.88236 5.82324 6.33008 5.82324C5.77779 5.82324 5.33008 6.27096 5.33008 6.82324C5.33008 7.37553 5.77779 7.82324 6.33008 7.82324Z" fill="#3E3E40"/>
<path d="M5.29907 10.5734C5.61579 11.1217 6.07534 11.5738 6.62873 11.8816C7.18213 12.1893 7.80865 12.3412 8.44154 12.321C9.07444 12.3007 9.68999 12.1092 10.2226 11.7668C10.7552 11.4243 11.185 10.9438 11.4661 10.3764L10.5061 9.90137C10.3111 10.2952 10.0129 10.6287 9.64329 10.8663C9.27368 11.104 8.8465 11.2369 8.4073 11.2508C7.9681 11.2648 7.53335 11.1593 7.14939 10.9456C6.76543 10.7319 6.44666 10.418 6.22707 10.0374L5.29907 10.5734Z" fill="#3E3E40"/>
</svg>
