<svg width="33" height="33" viewBox="0 0 33 33" fill="none" xmlns="http://www.w3.org/2000/svg">
<path d="M31.7106 0.885254H2.25153C1.54307 0.885254 0.970703 1.45763 0.970703 2.16609V31.6252C0.970703 32.3337 1.54307 32.906 2.25153 32.906H31.7106C32.4191 32.906 32.9915 32.3337 32.9915 31.6252V2.16609C32.9915 1.45763 32.4191 0.885254 31.7106 0.885254ZM28.0122 10.2313H25.4546C23.4493 10.2313 23.061 11.1839 23.061 12.5848V15.6708H27.8481L27.2237 20.502H23.061V32.906H18.0698V20.506H13.8951V15.6708H18.0698V12.1085C18.0698 7.97385 20.5954 5.72039 24.2858 5.72039C26.055 5.72039 27.572 5.85248 28.0163 5.91252V10.2313H28.0122Z" fill="#2091F9"/>
</svg>
