<svg width="17" height="17" viewBox="0 0 17 17" fill="none" xmlns="http://www.w3.org/2000/svg">
<g clip-path="url(#clip0_56_2448)">
<path d="M7.3521 8.7463C7.3521 9.2923 7.1721 9.7483 6.8421 10.0693C6.5121 10.3893 6.0421 10.5633 5.4821 10.5633C4.8721 10.5633 4.3671 10.3503 4.0171 9.9583C3.6671 9.56831 3.4801 9.0113 3.4801 8.3393V8.3343C3.4801 7.6693 3.6701 7.1133 4.0181 6.7223C4.3681 6.3303 4.8681 6.1123 5.4711 6.1123C6.4461 6.1123 7.1671 6.6763 7.3141 7.5223L7.3151 7.5303L7.3291 7.6683H6.4261L6.3961 7.5683C6.34453 7.38078 6.22926 7.21708 6.0701 7.1053C5.89186 6.98965 5.68247 6.93137 5.4701 6.9383C5.32331 6.93414 5.17764 6.96498 5.04514 7.02827C4.91263 7.09157 4.7971 7.1855 4.7081 7.3023C4.5261 7.5373 4.4181 7.8863 4.4181 8.3283V8.3343C4.4181 8.7833 4.5281 9.1343 4.7141 9.3723C4.80618 9.49028 4.92482 9.58484 5.06037 9.64826C5.19591 9.71169 5.34453 9.7422 5.4941 9.7373C5.7811 9.7373 6.0151 9.6473 6.1771 9.5003C6.25977 9.42248 6.32565 9.32858 6.3707 9.22437C6.41576 9.12016 6.43903 9.00784 6.4391 8.8943H5.4721V8.1413H7.3521V8.7463ZM11.2241 7.0233V8.0203H12.9211V8.81031H11.2241V10.4623H10.3001V6.2133H13.0801V7.0233H11.2241ZM8.2861 6.2133V10.4623H9.2091V6.2133H8.2861Z" fill="#3E3E40"/>
<path fill-rule="evenodd" clip-rule="evenodd" d="M0.830078 3.82324C0.830078 3.29281 1.04079 2.7841 1.41586 2.40903C1.79094 2.03396 2.29965 1.82324 2.83008 1.82324H13.8301C14.3605 1.82324 14.8692 2.03396 15.2443 2.40903C15.6194 2.7841 15.8301 3.29281 15.8301 3.82324V12.8232C15.8301 13.3537 15.6194 13.8624 15.2443 14.2375C14.8692 14.6125 14.3605 14.8232 13.8301 14.8232H2.83008C2.29965 14.8232 1.79094 14.6125 1.41586 14.2375C1.04079 13.8624 0.830078 13.3537 0.830078 12.8232V3.82324ZM2.83008 2.82324H13.8301C14.0953 2.82324 14.3496 2.9286 14.5372 3.11614C14.7247 3.30367 14.8301 3.55803 14.8301 3.82324V12.8232C14.8301 13.0885 14.7247 13.3428 14.5372 13.5303C14.3496 13.7179 14.0953 13.8232 13.8301 13.8232H2.83008C2.56486 13.8232 2.31051 13.7179 2.12297 13.5303C1.93543 13.3428 1.83008 13.0885 1.83008 12.8232V3.82324C1.83008 3.55803 1.93543 3.30367 2.12297 3.11614C2.31051 2.9286 2.56486 2.82324 2.83008 2.82324Z" fill="#3E3E40"/>
</g>
<defs>
<clipPath id="clip0_56_2448">
<rect width="16" height="16" fill="white" transform="translate(0.330078 0.323242)"/>
</clipPath>
</defs>
</svg>
