<svg width="194" height="64" viewBox="0 0 194 64" fill="none" xmlns="http://www.w3.org/2000/svg">
<g clip-path="url(#clip0_56_8558)">
<path d="M187.716 38.8052L193.071 42.3561C191.333 44.9023 187.177 49.2711 179.991 49.2711C171.068 49.2711 164.422 42.4029 164.422 33.6658C164.422 24.3684 171.138 18.0609 179.24 18.0609C187.388 18.0609 191.38 24.5083 192.671 27.9891L193.376 29.7647L172.383 38.4081C173.98 41.5386 176.469 43.1271 179.991 43.1271C183.513 43.1271 185.955 41.3983 187.716 38.8052ZM171.256 33.1757L185.275 27.3819C184.499 25.4432 182.199 24.0651 179.451 24.0651C175.952 24.0651 171.091 27.1487 171.256 33.1757Z" fill="#FF302F"/>
<path d="M154.301 2.15239H161.064V47.8461H154.301V2.15201V2.15239Z" fill="#20B15A"/>
<path d="M143.641 19.2756H150.169V47.0282C150.169 58.5448 143.335 63.2871 135.257 63.2871C127.649 63.2871 123.07 58.1946 121.356 54.0598L127.344 51.5833C128.424 54.1296 131.03 57.1434 135.257 57.1434C140.447 57.1434 143.641 53.9428 143.641 47.9627V45.7202H143.406C141.856 47.5888 138.897 49.2707 135.14 49.2707C127.297 49.2707 120.111 42.4727 120.111 33.7127C120.111 24.9054 127.297 18.0377 135.14 18.0377C138.874 18.0377 141.856 19.6963 143.406 21.5184H143.641V19.2759V19.2756ZM144.11 33.7127C144.11 28.1994 140.423 24.1813 135.727 24.1813C130.983 24.1813 126.991 28.1994 126.991 33.7127C126.991 39.1554 130.983 43.1034 135.727 43.1034C140.424 43.1271 144.11 39.1554 144.11 33.7127H144.11Z" fill="#3686F7"/>
<path d="M82.9851 33.5957C82.9851 42.5897 75.9406 49.2006 67.2989 49.2006C58.6577 49.2006 51.6128 42.5664 51.6128 33.5957C51.6128 24.5552 58.6577 17.9676 67.2989 17.9676C75.9406 17.9676 82.9851 24.5552 82.9851 33.5957ZM76.1283 33.5957C76.1283 27.9895 72.0421 24.1345 67.2989 24.1345C62.5557 24.1345 58.4696 27.9895 58.4696 33.5957C58.4696 39.1555 62.5557 43.0569 67.2989 43.0569C72.0425 43.0569 76.1283 39.1555 76.1283 33.5957Z" fill="#FF302F"/>
<path d="M117.246 33.6658C117.246 42.6598 110.201 49.2707 101.56 49.2707C92.9185 49.2707 85.874 42.6594 85.874 33.6658C85.874 24.6253 92.9185 18.0609 101.56 18.0609C110.201 18.0609 117.246 24.6021 117.246 33.6658ZM110.366 33.6658C110.366 28.0596 106.28 24.2046 101.536 24.2046C96.7932 24.2046 92.7071 28.0596 92.7071 33.6658C92.7071 39.2256 96.7932 43.1271 101.536 43.1271C106.303 43.1271 110.366 39.2023 110.366 33.6658Z" fill="#FFBA40"/>
<path d="M25.8292 42.4262C15.9899 42.4262 8.28802 34.5302 8.28802 24.742C8.28802 14.9541 15.9899 7.05808 25.8292 7.05808C31.1363 7.05808 35.0106 9.13708 37.8755 11.8003L42.5957 7.10495C38.6037 3.2972 33.2732 0.39995 25.8292 0.39995C12.3504 0.400325 1.0083 11.3335 1.0083 24.742C1.0083 38.1512 12.3504 49.084 25.8292 49.084C33.1089 49.084 38.6037 46.7012 42.901 42.2627C47.3155 37.8707 48.6774 31.7035 48.6774 26.7043C48.6774 25.1391 48.4897 23.5273 48.2782 22.336H25.8292V28.8302H41.8206C41.351 32.8952 40.0595 35.6751 38.1574 37.567C35.8561 39.88 32.2166 42.4262 25.8292 42.4262Z" fill="#3686F7"/>
</g>
<defs>
<clipPath id="clip0_56_8558">
<rect width="193" height="63" fill="white" transform="translate(0.728027 0.303223)"/>
</clipPath>
</defs>
</svg>
