<svg width="33" height="33" viewBox="0 0 33 33" fill="none" xmlns="http://www.w3.org/2000/svg">
<path d="M31.698 0.885254H2.23884C1.53038 0.885254 0.958008 1.45763 0.958008 2.16609V31.6252C0.958008 32.3337 1.53038 32.906 2.23884 32.906H31.698C32.4064 32.906 32.9788 32.3337 32.9788 31.6252V2.16609C32.9788 1.45763 32.4064 0.885254 31.698 0.885254ZM10.4562 28.171H5.70509V12.889H10.4562V28.171ZM8.08263 10.7997C7.53798 10.7997 7.00557 10.6382 6.55271 10.3356C6.09985 10.033 5.74689 9.60292 5.53846 9.09973C5.33004 8.59654 5.2755 8.04285 5.38176 7.50866C5.48801 6.97448 5.75029 6.4838 6.13541 6.09868C6.52053 5.71355 7.01121 5.45128 7.54539 5.34503C8.07958 5.23877 8.63327 5.2933 9.13646 5.50173C9.63965 5.71016 10.0697 6.06312 10.3723 6.51598C10.6749 6.96884 10.8364 7.50125 10.8364 8.0459C10.8324 9.56689 9.59962 10.7997 8.08263 10.7997ZM28.2437 28.171H23.4966V20.7381C23.4966 18.965 23.4646 16.6875 21.027 16.6875C18.5574 16.6875 18.1772 18.6168 18.1772 20.6101V28.171H13.4341V12.889H17.9891V14.9784H18.0531C18.6855 13.7776 20.2345 12.5088 22.548 12.5088C27.3591 12.5088 28.2437 15.6748 28.2437 19.7895V28.171Z" fill="#2091F9"/>
</svg>
