<svg width="27" height="33" viewBox="0 0 27 33" fill="none" xmlns="http://www.w3.org/2000/svg">
<g clip-path="url(#clip0_56_8727)">
<path d="M13.4998 19.384C16.9927 19.384 19.8332 16.5435 19.8332 13.0506C19.8332 9.55778 16.9927 6.71729 13.4998 6.71729C10.007 6.71729 7.1665 9.55778 7.1665 13.0506C7.1665 16.5435 10.007 19.384 13.4998 19.384ZM13.4998 9.88395C15.2463 9.88395 16.6665 11.3042 16.6665 13.0506C16.6665 14.797 15.2463 16.2173 13.4998 16.2173C11.7534 16.2173 10.3332 14.797 10.3332 13.0506C10.3332 11.3042 11.7534 9.88395 13.4998 9.88395Z" fill="#2091F9"/>
<path d="M12.2485 31.7562C12.5164 31.9476 12.8375 32.0504 13.1668 32.0504C13.4961 32.0504 13.8172 31.9476 14.0851 31.7562C14.5665 31.4158 25.8794 23.2474 25.8335 13.0507C25.8335 6.06662 20.1509 0.384033 13.1668 0.384033C6.18272 0.384033 0.500139 6.06662 0.500139 13.0428C0.454223 23.2474 11.7671 31.4158 12.2485 31.7562ZM13.1668 3.5507C18.4061 3.5507 22.6668 7.81145 22.6668 13.0586C22.7001 20.0854 15.7191 26.395 13.1668 28.4644C10.6161 26.3934 3.63356 20.0823 3.66681 13.0507C3.66681 7.81145 7.92756 3.5507 13.1668 3.5507Z" fill="#2091F9"/>
</g>
<defs>
<clipPath id="clip0_56_8727">
<rect width="26" height="32" fill="white" transform="translate(0.5 0.217285)"/>
</clipPath>
</defs>
</svg>
