<svg width="30" height="30" viewBox="0 0 30 30" fill="none" xmlns="http://www.w3.org/2000/svg">
<rect width="30" height="30" fill="#367FEE"/>
<path fill-rule="evenodd" clip-rule="evenodd" d="M8 8.50293C8 8.23771 8.10536 7.98336 8.29289 7.79582C8.48043 7.60829 8.73478 7.50293 9 7.50293H13C13.2652 7.50293 13.5196 7.60829 13.7071 7.79582C13.8946 7.98336 14 8.23771 14 8.50293V12.5029C14 12.7681 13.8946 13.0225 13.7071 13.21C13.5196 13.3976 13.2652 13.5029 13 13.5029H9C8.73478 13.5029 8.48043 13.3976 8.29289 13.21C8.10536 13.0225 8 12.7681 8 12.5029V8.50293ZM17 7.50293C16.7348 7.50293 16.4804 7.60829 16.2929 7.79582C16.1054 7.98336 16 8.23771 16 8.50293V12.5029C16 12.7681 16.1054 13.0225 16.2929 13.21C16.4804 13.3976 16.7348 13.5029 17 13.5029H21C21.2652 13.5029 21.5196 13.3976 21.7071 13.21C21.8946 13.0225 22 12.7681 22 12.5029V8.50293C22 8.23771 21.8946 7.98336 21.7071 7.79582C21.5196 7.60829 21.2652 7.50293 21 7.50293H17ZM17 15.5029C16.7348 15.5029 16.4804 15.6083 16.2929 15.7958C16.1054 15.9834 16 16.2377 16 16.5029V20.5029C16 20.7681 16.1054 21.0225 16.2929 21.21C16.4804 21.3976 16.7348 21.5029 17 21.5029H21C21.2652 21.5029 21.5196 21.3976 21.7071 21.21C21.8946 21.0225 22 20.7681 22 20.5029V16.5029C22 16.2377 21.8946 15.9834 21.7071 15.7958C21.5196 15.6083 21.2652 15.5029 21 15.5029H17ZM9 15.5029C8.73478 15.5029 8.48043 15.6083 8.29289 15.7958C8.10536 15.9834 8 16.2377 8 16.5029V20.5029C8 20.7681 8.10536 21.0225 8.29289 21.21C8.48043 21.3976 8.73478 21.5029 9 21.5029H13C13.2652 21.5029 13.5196 21.3976 13.7071 21.21C13.8946 21.0225 14 20.7681 14 20.5029V16.5029C14 16.2377 13.8946 15.9834 13.7071 15.7958C13.5196 15.6083 13.2652 15.5029 13 15.5029H9Z" fill="white"/>
</svg>
