<svg width="16" height="17" viewBox="0 0 16 17" fill="none" xmlns="http://www.w3.org/2000/svg">
<path fill-rule="evenodd" clip-rule="evenodd" d="M15.211 1.94413C15.2509 1.85216 15.2622 1.75033 15.2435 1.65185C15.2248 1.55336 15.1769 1.46277 15.1061 1.39183C15.0353 1.3209 14.9448 1.27289 14.8463 1.25404C14.7478 1.23519 14.646 1.24637 14.554 1.28613L1.05398 7.13613C0.960056 7.17664 0.88082 7.24498 0.826956 7.33194C0.773093 7.41889 0.747194 7.52028 0.752753 7.62241C0.758312 7.72454 0.795062 7.82252 0.858045 7.90311C0.921028 7.98371 1.00721 8.04305 1.10498 8.07313L6.70198 9.79513L8.42498 15.3921C8.45514 15.4896 8.51442 15.5755 8.59485 15.6384C8.67528 15.7012 8.773 15.7379 8.8749 15.7436C8.97679 15.7492 9.07798 15.7236 9.16487 15.67C9.25176 15.6165 9.3202 15.5377 9.36098 15.4441L15.211 1.94413ZM6.96098 8.82913L2.69498 7.51513L12.544 3.24713L6.96298 8.82913H6.96098ZM7.66898 9.53613L8.98198 13.8041L13.25 3.95413L7.66898 9.53613Z" fill="white"/>
</svg>
