<svg width="17" height="17" viewBox="0 0 17 17" fill="none" xmlns="http://www.w3.org/2000/svg">
<path fill-rule="evenodd" clip-rule="evenodd" d="M8.03009 6.32324C7.49966 6.32324 6.99095 6.53396 6.61588 6.90903C6.2408 7.2841 6.03009 7.79281 6.03009 8.32324C6.03009 8.85368 6.2408 9.36238 6.61588 9.73746C6.99095 10.1125 7.49966 10.3232 8.03009 10.3232C8.56052 10.3232 9.06923 10.1125 9.4443 9.73746C9.81938 9.36238 10.0301 8.85368 10.0301 8.32324C10.0301 7.79281 9.81938 7.2841 9.4443 6.90903C9.06923 6.53396 8.56052 6.32324 8.03009 6.32324ZM5.03009 8.32324C5.03009 7.92928 5.10769 7.53917 5.25845 7.17519C5.40922 6.81122 5.63019 6.4805 5.90877 6.20192C6.18735 5.92335 6.51806 5.70237 6.88204 5.5516C7.24602 5.40084 7.63612 5.32324 8.03009 5.32324C8.42406 5.32324 8.81416 5.40084 9.17814 5.5516C9.54212 5.70237 9.87284 5.92335 10.1514 6.20192C10.43 6.4805 10.651 6.81122 10.8017 7.17519C10.9525 7.53917 11.0301 7.92928 11.0301 8.32324C11.0301 9.11889 10.714 9.88195 10.1514 10.4446C9.5888 11.0072 8.82574 11.3232 8.03009 11.3232C7.23444 11.3232 6.47138 11.0072 5.90877 10.4446C5.34616 9.88195 5.03009 9.11889 5.03009 8.32324Z" fill="#3E3E40"/>
<path fill-rule="evenodd" clip-rule="evenodd" d="M10.0301 5.32324H11.0301V8.32324H10.0301V5.32324Z" fill="#3E3E40"/>
<path fill-rule="evenodd" clip-rule="evenodd" d="M1.33008 8.32324C1.33008 6.46673 2.06758 4.68625 3.38033 3.37349C4.69309 2.06074 6.47356 1.32324 8.33008 1.32324C10.1866 1.32324 11.9671 2.06074 13.2798 3.37349C14.5926 4.68625 15.3301 6.46673 15.3301 8.32324C15.3369 8.67776 15.273 9.03008 15.1421 9.35961C15.0112 9.68914 14.8159 9.98925 14.5676 10.2424C14.3193 10.4955 14.023 10.6966 13.6961 10.8339C13.3692 10.9712 13.0182 11.0419 12.6636 11.0419C12.309 11.0419 11.958 10.9712 11.631 10.8339C11.3041 10.6966 11.0078 10.4955 10.7596 10.2424C10.5113 9.98925 10.3159 9.68914 10.185 9.35961C10.0541 9.03008 9.99021 8.67776 9.99708 8.32324C9.99708 8.19063 10.0498 8.06346 10.1435 7.96969C10.2373 7.87592 10.3645 7.82324 10.4971 7.82324C10.6297 7.82324 10.7569 7.87592 10.8506 7.96969C10.9444 8.06346 10.9971 8.19063 10.9971 8.32324C10.9916 8.54553 11.0307 8.76665 11.112 8.9736C11.1933 9.18056 11.3152 9.36915 11.4705 9.52829C11.6258 9.68743 11.8113 9.81389 12.0162 9.90024C12.2211 9.98659 12.4412 10.0311 12.6636 10.0311C12.8859 10.0311 13.106 9.98659 13.3109 9.90024C13.5158 9.81389 13.7014 9.68743 13.8567 9.52829C14.012 9.36915 14.1338 9.18056 14.2151 8.9736C14.2964 8.76665 14.3355 8.54553 14.3301 8.32324C14.3301 7.53531 14.1749 6.7551 13.8734 6.02714C13.5718 5.29919 13.1299 4.63775 12.5727 4.0806C12.0156 3.52345 11.3541 3.08149 10.6262 2.77996C9.89822 2.47844 9.11801 2.32324 8.33008 2.32324C7.54215 2.32324 6.76193 2.47844 6.03398 2.77996C5.30602 3.08149 4.64459 3.52345 4.08744 4.0806C3.53029 4.63775 3.08833 5.29919 2.7868 6.02714C2.48527 6.7551 2.33008 7.53531 2.33008 8.32324C2.33008 9.91454 2.96222 11.4407 4.08744 12.5659C5.21266 13.6911 6.73878 14.3232 8.33008 14.3232C8.46269 14.3232 8.58986 14.3759 8.68363 14.4697C8.7774 14.5635 8.83008 14.6906 8.83008 14.8232C8.83008 14.9559 8.7774 15.083 8.68363 15.1768C8.58986 15.2706 8.46269 15.3232 8.33008 15.3232C6.47356 15.3232 4.69309 14.5857 3.38033 13.273C2.06758 11.9602 1.33008 10.1798 1.33008 8.32324Z" fill="#3E3E40"/>
</svg>
