<svg width="34" height="28" viewBox="0 0 34 28" fill="none" xmlns="http://www.w3.org/2000/svg">
<path d="M33.645 3.58105C32.4202 4.10939 31.0873 4.48964 29.7144 4.63773C31.1398 3.79093 32.2072 2.45311 32.7164 0.87529C31.3788 1.67096 29.9136 2.2289 28.3855 2.52436C27.7469 1.84162 26.9745 1.29772 26.1165 0.926553C25.2585 0.555382 24.3332 0.364895 23.3983 0.36696C19.6159 0.36696 16.5739 3.43295 16.5739 7.19539C16.5739 7.72373 16.6379 8.25208 16.742 8.76041C11.0783 8.46421 6.02705 5.75846 2.66887 1.61577C2.05697 2.66091 1.73632 3.85092 1.74026 5.06201C1.74026 7.43154 2.94505 9.5209 4.78224 10.7497C3.69955 10.7071 2.64222 10.4095 1.69624 9.88113V9.96519C1.69624 13.2833 4.04176 16.0331 7.16779 16.6655C6.58084 16.818 5.97704 16.896 5.37062 16.8977C4.92633 16.8977 4.50606 16.8537 4.08178 16.7936C4.94634 19.4994 7.46398 21.4647 10.4619 21.5287C8.1164 23.3659 5.17849 24.4466 1.98843 24.4466C1.41605 24.4466 0.887711 24.4266 0.339355 24.3625C3.36532 26.3038 6.95565 27.4245 10.8222 27.4245C23.3743 27.4245 30.2428 17.0258 30.2428 7.99991C30.2428 7.70372 30.2428 7.40753 30.2227 7.11134C31.5516 6.13871 32.7164 4.93392 33.645 3.58105Z" fill="#2091F9"/>
</svg>
