<svg width="21" height="20" viewBox="0 0 21 20" fill="none" xmlns="http://www.w3.org/2000/svg">
<path fill-rule="evenodd" clip-rule="evenodd" d="M4.16003 3.71983C4.30065 3.57938 4.49127 3.50049 4.69003 3.50049C4.88878 3.50049 5.0794 3.57938 5.22003 3.71983L16.721 15.2198C16.7927 15.289 16.8499 15.3717 16.8892 15.4632C16.9286 15.5547 16.9493 15.6531 16.9502 15.7527C16.9511 15.8523 16.9322 15.951 16.8945 16.0432C16.8569 16.1354 16.8012 16.2192 16.7308 16.2896C16.6604 16.3601 16.5767 16.4158 16.4846 16.4536C16.3924 16.4913 16.2937 16.5103 16.1941 16.5095C16.0945 16.5087 15.9961 16.4881 15.9046 16.4488C15.813 16.4095 15.7302 16.3524 15.661 16.2808L4.16003 4.78083C4.09033 4.71118 4.03504 4.62848 3.99732 4.53745C3.9596 4.44643 3.94019 4.34886 3.94019 4.25033C3.94019 4.1518 3.9596 4.05423 3.99732 3.9632C4.03504 3.87218 4.09033 3.78948 4.16003 3.71983Z" fill="#3E3E40"/>
<path fill-rule="evenodd" clip-rule="evenodd" d="M16.721 3.71983C16.5804 3.57938 16.3898 3.50049 16.191 3.50049C15.9923 3.50049 15.8016 3.57938 15.661 3.71983L4.16 15.2198C4.02332 15.3612 3.94763 15.5506 3.94924 15.7473C3.95086 15.9439 4.02965 16.1321 4.16864 16.2712C4.30763 16.4103 4.4957 16.4893 4.69235 16.4911C4.889 16.4929 5.07849 16.4174 5.22 16.2808L16.721 4.78083C16.7907 4.71118 16.846 4.62848 16.8837 4.53745C16.9214 4.44643 16.9408 4.34886 16.9408 4.25033C16.9408 4.1518 16.9214 4.05423 16.8837 3.9632C16.846 3.87218 16.7907 3.78948 16.721 3.71983Z" fill="#3E3E40"/>
</svg>
