<svg width="57" height="56" viewBox="0 0 57 56" fill="none" xmlns="http://www.w3.org/2000/svg">
<path d="M23.2496 48.6502C27.4029 47.0168 26.4929 42.5135 24.3929 39.6668C22.3163 36.7502 19.4463 34.7435 16.5529 32.8068C14.4885 31.5057 12.6453 29.883 11.0929 28.0002C10.4396 27.2302 9.10961 25.8068 10.4629 25.5268C11.8396 25.2468 14.2196 26.6002 15.4329 27.1135C17.5563 28.0002 19.6563 29.0268 21.6163 30.2402L23.9729 26.2735C20.3329 23.8702 15.6663 21.7468 11.3263 21.1168C8.85294 20.7435 6.23961 21.2568 5.39961 23.9402C4.65294 26.2502 5.84294 28.5835 7.19628 30.4035C10.3929 34.6735 15.3629 36.7268 19.0729 40.4135C19.8663 41.1835 20.8229 42.0935 21.2896 43.1668C21.7796 44.1935 21.6629 44.2635 20.5663 44.2635C17.6729 44.2635 14.0563 42.0002 11.6996 40.5068L9.34294 44.4735C12.9129 46.6668 18.8863 50.0968 23.2496 48.6502ZM49.1263 12.2502C49.6396 11.7368 49.6396 10.8968 49.1263 10.4068L46.0929 7.37349C45.8486 7.13795 45.5224 7.00635 45.1829 7.00635C44.8435 7.00635 44.5173 7.13795 44.2729 7.37349L41.8929 9.75349L46.7463 14.6068L49.1263 12.2502ZM26.1663 25.4802V30.3335H31.0196L45.3696 15.9835L40.5163 11.1302L26.1663 25.4802Z" fill="#2091F9"/>
</svg>
