<svg width="61" height="61" viewBox="0 0 61 61" fill="none" xmlns="http://www.w3.org/2000/svg">
<path d="M52.6381 11.7679L49.2323 8.36209C48.2918 7.37084 46.6397 7.37084 45.6485 8.36209L22.8752 31.1354L29.8647 38.125L52.6381 15.3517C53.6293 14.3604 53.6293 12.7083 52.6381 11.7679ZM17.7918 35.5833C15.7696 35.5833 13.8301 36.3867 12.4001 37.8167C10.9702 39.2466 10.1668 41.1861 10.1668 43.2083C10.1668 46.5379 7.2185 48.2917 5.0835 48.2917C7.42183 51.3925 11.4377 53.375 15.2502 53.375C17.9465 53.375 20.5325 52.3039 22.4391 50.3973C24.3457 48.4906 25.4168 45.9047 25.4168 43.2083C25.4168 41.1861 24.6135 39.2466 23.1835 37.8167C21.7536 36.3867 19.8141 35.5833 17.7918 35.5833Z" fill="#2091F9"/>
</svg>
